<svg width="163" height="73" xmlns="http://www.w3.org/2000/svg" xmlns:xlink="http://www.w3.org/1999/xlink"><defs><path id="path-1" d="M.016.075H161.48v27.473H.016z"/></defs><g id="Page-1" stroke="none" stroke-width="1" fill="none" fill-rule="evenodd"><g id="Group"><path id="Fill-1" fill="#6A7A9D" d="M43.727 35.637h36.07V0h-36.07z"/><path id="Fill-2" fill="#B7BCCE" d="M85.018 35.637h76.25V0h-76.25z"/><path id="Fill-3" fill="#08305D" d="M2.438 35.637h36.07V0H2.438z"/><g id="Group-7" transform="translate(0 44.933)"><mask id="mask-2" fill="#fff"><use xlink:href="#path-1"/></mask><path id="Fill-4" fill="#B7BCCE" mask="url(#mask-2)" d="M2.438 27.548h159.043v-3.936H2.438z"/><path d="M5.716 11.503V.075H3.524V11.28c0 2.678-1.287 4.106-3.525 4.509l1.425 1.428c1.942-.357 4.292-2.143 4.292-5.714" id="Fill-6" fill="#08305D" mask="url(#mask-2)"/></g><path d="M19.181 54.204c0-3.149-2.372-5.314-5.423-5.314-3.049 0-5.443 2.165-5.443 5.314 0 3.124 2.394 5.29 5.443 5.29 3.05 0 5.423-2.166 5.423-5.29m-2.078 0c0 2.097-1.56 3.504-3.345 3.504-1.807 0-3.366-1.407-3.366-3.504 0-2.12 1.56-3.527 3.366-3.527 1.786 0 3.345 1.406 3.345 3.527" id="Fill-8" fill="#08305D"/><path d="M30.27 59.248v-6.696c0-2.255-1.648-3.66-3.885-3.66-1.492 0-2.26.356-3.005 1.07v-6.607h-2.056v15.893h2.056v-6.495c0-1.05.813-2.12 2.463-2.12 1.716 0 2.372 1.07 2.372 2.12v6.495h2.055" id="Fill-9" fill="#08305D"/><path d="M41.701 59.248v-6.696c0-2.255-1.648-3.66-3.886-3.66-1.604 0-2.372.402-3.162 1.249l-.09-1.005h-1.81v10.112h2.058v-6.495c0-1.05.813-2.12 2.462-2.12 1.717 0 2.372 1.07 2.372 2.12v6.495H41.7" id="Fill-10" fill="#08305D"/><path id="Fill-11" fill="#08305D" d="M49.946 59.249h2.192V45.008h-2.192z"/><path d="M64.13 59.248v-6.696c0-2.255-1.648-3.66-3.885-3.66-1.605 0-2.373.402-3.163 1.249l-.09-1.005h-1.808v10.112h2.056v-6.495c0-1.05.813-2.12 2.463-2.12 1.716 0 2.371 1.07 2.371 2.12v6.495h2.057" id="Fill-12" fill="#08305D"/><path d="M75.56 59.248v-6.696c0-2.255-1.648-3.66-3.885-3.66-1.605 0-2.372.402-3.163 1.249l-.09-1.005h-1.809v10.112h2.057v-6.495c0-1.05.813-2.12 2.463-2.12 1.716 0 2.371 1.07 2.371 2.12v6.495h2.057" id="Fill-13" fill="#08305D"/><path d="M87.103 52.73c0-1.875-1.605-3.839-4.428-3.839-2.371 0-5.083 1.874-5.083 5.313 0 3.147 2.576 5.29 5.49 5.29 1.379 0 2.305-.268 3.027-.648l.52-2.164c-.949.669-1.966 1.026-3.276 1.026-2.395 0-3.57-1.763-3.637-3.013h6.168l1.151-1.14c.046-.222.068-.512.068-.825m-2.078.046c0 .088 0 .178-.022.267H79.85c.272-1.407 1.65-2.41 2.937-2.41 1.356 0 2.237 1.137 2.237 2.143" id="Fill-14" fill="#08305D"/><path d="M95.575 56.48c0-1.764-1.154-2.679-3.209-3.414-1.017-.358-1.492-.693-1.492-1.34 0-.67.566-1.138 1.424-1.138 1.108 0 1.853.334 2.305.647l.383-1.697c-.383-.245-1.491-.647-2.665-.647-2.033 0-3.433 1.205-3.433 2.902 0 1.629 1.128 2.567 3.161 3.304.95.334 1.469.758 1.469 1.473 0 .692-.655 1.205-1.627 1.205-1.242 0-2.553-.536-3.389-1.25l.474 2.231c.612.403 1.673.737 2.87.737 2.486 0 3.729-1.384 3.729-3.012" id="Fill-15" fill="#08305D"/><path d="M114.485 45.655c-.88-.492-2.26-.938-4.247-.938-3.592 0-7.772 2.477-7.772 7.41 0 4.867 4.135 7.388 7.772 7.388 1.853 0 2.868-.222 3.773-.692l.45-2.075c-.902.536-2.258.893-3.975.893-2.892 0-5.806-1.83-5.806-5.514 0-3.726 2.981-5.535 5.806-5.535 1.492 0 2.915.491 3.615.938l.384-1.875" id="Fill-16" fill="#08305D"/><path d="M125.235 52.73c0-1.875-1.604-3.839-4.428-3.839-2.371 0-5.083 1.874-5.083 5.313 0 3.147 2.575 5.29 5.49 5.29 1.379 0 2.305-.268 3.027-.648l.52-2.164c-.949.669-1.966 1.026-3.276 1.026-2.395 0-3.57-1.763-3.637-3.013h6.168l1.151-1.14c.046-.222.068-.512.068-.825m-2.078.046c0 .088 0 .178-.022.267h-5.152c.272-1.407 1.648-2.41 2.938-2.41 1.355 0 2.236 1.137 2.236 2.143" id="Fill-17" fill="#08305D"/><path d="M136.214 59.248v-6.696c0-2.255-1.648-3.66-3.886-3.66-1.604 0-2.372.402-3.161 1.249l-.092-1.005h-1.808v10.112h2.056v-6.495c0-1.05.813-2.12 2.463-2.12 1.718 0 2.371 1.07 2.371 2.12v6.495h2.057" id="Fill-18" fill="#08305D"/><path d="M145.317 49.137h-3.614v-3.103l-2.034 1.049v2.054h-2.01v1.63h2.01v5.558c0 2.008 1.491 3.08 3.343 3.08.407 0 .7-.023.927-.09l.407-1.808c-.316.112-.702.156-1.13.156-.836 0-1.513-.447-1.513-1.272v-5.625h3.253l.361-1.63" id="Fill-19" fill="#08305D"/><path d="M152.95 50.72l-.384-1.717c-1.535 0-2.936.468-3.479 1.718l-.09-1.584h-1.943v10.11h2.057v-4.776c0-2.879 1.987-3.75 3.636-3.75h.203" id="Fill-20" fill="#08305D"/><path d="M162.797 52.73c0-1.875-1.603-3.839-4.428-3.839-2.372 0-5.083 1.874-5.083 5.313 0 3.147 2.577 5.29 5.49 5.29 1.379 0 2.305-.268 3.028-.648l.519-2.164c-.948.669-1.965 1.026-3.276 1.026-2.394 0-3.57-1.763-3.636-3.013h6.167l1.152-1.14c.046-.222.067-.512.067-.825m-2.077.046c0 .088 0 .178-.023.267h-5.152c.273-1.407 1.65-2.41 2.938-2.41 1.356 0 2.237 1.137 2.237 2.143" id="Fill-21" fill="#08305D"/></g></g></svg>